<svg width="322" height="32" viewBox="0 0 322 32" fill="none" xmlns="http://www.w3.org/2000/svg">
<path fill-rule="evenodd" clip-rule="evenodd" d="M0.5 16V31.5734H5.37649H10.253V25.3867V19.2H21.2781H32.3032V15.5734V11.9467H21.2781H10.253V9.81337V7.68004H21.4901H32.7272V4.05337V0.426706H16.6136H0.5V16ZM70.9979 15.9907L63.26 31.5734H68.2564H73.2534L74.6124 28.8L75.9715 26.0267H85.2682H94.5645L96.1058 28.8L97.6472 31.5734H102.95H108.253L105.806 26.9867C104.46 24.4638 100.753 17.504 97.5675 11.52L91.7759 0.640039L85.2559 0.523986L78.7358 0.407932L70.9979 15.9907ZM143.402 15.9808V31.5734H159.015C172.111 31.5734 174.997 31.4629 176.919 30.8886C182.095 29.3419 184.659 23.8302 182.465 18.9692C181.606 17.0659 179.508 15.0725 177.949 14.6787C176.981 14.4342 177.01 14.3732 178.724 13.0624C182.875 9.88932 182.23 4.01455 177.473 1.65849C175.432 0.647292 175.303 0.639186 159.41 0.514172L143.402 0.388306V15.9808ZM219.306 16V31.5734H235.207H251.109V27.7334V23.8934H240.296H229.483V12.16V0.426706H224.394H219.306V16ZM288.001 16V31.5734H304.538H321.076V27.9467V24.32H309.415H297.754V21.76V19.2H308.991H320.228V15.5734V11.9467H308.991H297.754V9.81337V7.68004H309.203H320.652V4.05337V0.426706H304.326H288.001V16ZM153.155 9.60004V11.9467H161.452C166.36 11.9467 170.083 11.7662 170.569 11.5051C171.509 10.9987 171.709 8.59908 170.88 7.76537C170.518 7.40057 167.893 7.25337 161.763 7.25337H153.155V9.60004ZM82.4381 13.0176C80.9849 15.9535 79.7959 18.4495 79.7959 18.5643C79.7959 18.6795 82.2766 18.7734 85.3085 18.7734C88.3404 18.7734 90.821 18.6573 90.821 18.5152C90.821 18.2439 85.3042 7.68004 85.1626 7.68004C85.1176 7.68004 83.8917 10.0822 82.4381 13.0176ZM153.155 21.76V24.7467H161.966C172.126 24.7467 172.661 24.5974 172.661 21.76C172.661 18.9227 172.126 18.7734 161.966 18.7734H153.155V21.76Z" fill="#080B13"/>
</svg>
